<?xml version="1.0" encoding="UTF-8"?><svg xmlns="http://www.w3.org/2000/svg" viewBox="0 0 1226.63 304.88"><defs><style>.d,.e{fill:#fff;}.e{fill-rule:evenodd;}</style></defs><g id="a"/><g id="b"><g id="c"><g><path class="e" d="M148.25,283.02l20.61,16.76c6.3,5.15,15.2,6.64,19.73,3.36l208.9-150.11c4.56-3.28,3.15-10.15-3.15-15.28l-20.61-16.76c-6.3-5.13-15.17-6.64-19.75-3.36l-208.88,150.11c-4.55,3.28-3.15,10.15,3.15,15.28m-71.21-57.96l20.61,16.79c6.3,5.13,15.17,6.61,19.73,3.36L326.28,95.09c4.58-3.3,3.12-10.18-3.15-15.3l-20.61-16.76c-6.3-5.13-15.17-6.64-19.75-3.36L73.89,209.81c-4.56,3.28-3.15,10.15,3.15,15.25M5.83,167.13l20.61,16.76c6.3,5.13,15.17,6.64,19.73,3.36L255.07,37.14c4.56-3.28,3.13-10.15-3.15-15.28l-20.61-16.79c-6.3-5.1-15.17-6.61-19.73-3.36L2.67,151.86c-4.55,3.28-3.14,10.15,3.16,15.27"/><path class="d" d="M628.01,172.8c-8.12,2.6-19,5.05-32.71,7.34-12.57,1.85-18.87,2.84-18.87,2.84-9.92,1.87-17.44,4.29-22.54,7.34-4.84,4.14-7.94,8.31-9.19,12.44-1.67,5.64-.57,10.17,3.1,13.56,3.8,2.99,10.15,4.55,19.02,4.55,14.57,0,26.96-3.05,37.11-9.08,10.12-6.04,16.79-14.31,19.88-24.85l4.19-14.13Zm-8.04,69.54c-12.21,4.14-24.57,6.72-37.09,7.68-12.57,.91-23.55,1.41-32.97,1.41-18.76,0-34.12-3.7-46.04-11.07-11.92-7.34-15.36-19.49-10.33-36.49,4.69-15.82,14.37-27.12,29.2-33.91,14.78-6.82,32.42-11.3,52.93-13.56,2.6,0,5.83-.29,9.68-.89,3.86-.57,8.12-1.01,12.91-1.41,23.65-2.26,36.59-7.18,38.83-14.7,1.66-5.65-1.33-9.32-8.9-11.07-7.6-1.66-14.76-2.5-21.58-2.5-7.29,0-14.05,.73-20.25,2.26-6.19,1.51-11.16,4.29-14.99,8.43h-52.47c5.52-11.66,15.64-21.26,30.45-28.78,16.66-8.69,38.07-13.04,64.1-13.04,29.28,0,50.12,3.57,62.64,10.75,12.88,7.55,17.3,18.12,13.3,31.67l-15.23,51.48c-4.45,15.07-11.68,26.88-21.78,35.34-10.07,8.48-20.9,14.6-32.42,18.37m44.37,6.22l21.58-72.98c4.34-14.65,10.98-27.01,19.96-37,8.98-9.97,19.57-17.98,31.75-24.02,11.55-5.64,24.41-9.78,38.49-12.44,14.16-2.65,28.24-3.98,42.34-3.98h47.29c-25.35,10.88-41.48,24.57-51.34,40.15h-18.04c-15.09,0-27.12,2.66-36.02,7.91-8.82,5.26-14.96,13.56-18.32,24.9l-22.9,77.45h-54.78Zm152.81-13.56c-8.95-6.81-14.13-15.93-15.4-27.45-1.28-11.47-.08-23.45,3.59-35.91,3.02-10.18,7.97-20.35,14.91-30.52,6.9-10.21,15.51-18.64,25.9-25.43,16.89-11.29,36.38-18.01,58.37-20.09,21.99-2.06,41.01-.86,56.84,3.67,18.19,5.65,29.9,15.48,35.19,29.43,5.18,12.42,5.36,26.94,.44,43.52-3.57,12.07-8.48,22.46-14.68,31.1-6.22,8.66-13.09,16.08-20.61,22.09-16.24,12.39-34.41,20.12-54.62,23.17-18.25,3.38-35.68,3.67-52.31,.86-16.65-2.84-29.2-7.65-37.61-14.42m66.96-99.54c-13.51,8.69-22.28,21.62-26.29,38.75-4.06,17.12-3.12,29.1,2.68,35.89,2.24,3.05,7,5.54,14.18,7.63,7.21,2.08,15.12,2.26,23.68,.57,8.59-1.69,17.07-5.94,25.35-12.73,8.22-6.77,14.86-17.69,19.83-32.76,4.03-13.61,4.03-23.79,.02-30.55-4.01-6.79-9.6-11.14-16.86-13.01-7.34-1.9-15.12-1.98-23.45-.28-8.3,1.72-14.7,3.9-19.15,6.51m294.44-81.98h26.57c7.29,0,12.99,1.95,17.05,5.93,4.03,3.93,5.33,8.38,3.88,13.27l-32.58,110.3c-7.94,26.78-23.97,44.89-48.15,54.29-24.17,9.42-48.8,14.16-73.86,14.16-13.56,0-26.39-1.62-38.55-4.85-12.07-3.2-20.97-8.35-26.67-15.53-11.04-13.95-12.93-33-5.83-57.15,7.03-23.74,20.2-42.74,39.58-57.08,19.99-14.71,42.29-22.07,66.81-22.07,13.04,0,23.97,1.9,32.82,5.68,9.06,4.52,15.69,10.36,19.86,17.49l19.07-64.44Zm-124.37,118.73c-4.45,15.07-3.99,26.59,1.48,34.51,5.54,7.9,15.59,11.86,30.16,11.86s26.23-3.96,36.38-11.86c9.71-7.92,16.76-19.44,21.21-34.51,4.03-13.54,3.25-24.31-2.21-32.22-6.14-7.52-16.24-11.3-30.34-11.3s-25.43,3.96-35.63,11.87c-10.05,7.52-17.05,18.11-21.05,31.65"/></g></g></g></svg>